<svg width="182" height="60" viewBox="0 0 182 60" fill="none" xmlns="http://www.w3.org/2000/svg">
<path d="M78.3513 51.8998V42.2998H83.1942C85.2697 42.2998 86.3075 43.0498 86.3075 44.5498C86.3075 45.7498 85.2697 46.7998 83.1942 47.3998L86.9993 51.8998H85.0967L81.4646 47.5498V46.7998C83.5401 46.4998 84.5778 45.7498 84.5778 44.6998C84.5778 43.7998 84.059 43.3498 82.8482 43.3498H79.735V52.0498H78.3513V51.8998Z" fill="#0C0C0C"/>
<path d="M95.82 42.2998V43.3498H89.9394V46.4998H95.4741V47.5498H89.9394V50.9998H95.993V52.0498H88.5557V42.4498H95.82V42.2998Z" fill="#0C0C0C"/>
<path d="M98.4146 51.8998H96.858L101.528 42.2998H103.085L107.927 51.8998H106.371L104.987 48.8998H101.355L101.701 47.8498H104.468L102.393 43.4998L98.4146 51.8998Z" fill="#0C0C0C"/>
<path d="M111.041 42.2998V50.9998H116.922V52.0498H109.657V42.4498H111.041V42.2998Z" fill="#0C0C0C"/>
<path d="M129.721 42.2998V43.3498H123.84V46.4998H129.375V47.5498H123.84V50.9998H129.894V52.0498H122.456V42.4498H129.721V42.2998Z" fill="#0C0C0C"/>
<path d="M131.796 51.5998V50.3998C133.007 50.6998 134.218 50.9998 135.601 50.9998C137.504 50.9998 138.542 50.3998 138.542 49.1998C138.542 48.1498 137.85 47.6998 136.466 47.6998H134.909C132.661 47.6998 131.45 46.7998 131.45 44.9998C131.45 43.1998 133.007 42.2998 135.947 42.2998C137.331 42.2998 138.542 42.4498 139.579 42.7498V43.9498C138.542 43.6498 137.331 43.3498 135.947 43.3498C133.872 43.3498 132.834 43.9498 132.834 45.1498C132.834 46.1998 133.526 46.6498 134.909 46.6498H136.293C138.715 46.6498 139.925 47.5498 139.925 49.3498C139.925 51.2998 138.542 52.1998 135.601 52.1998C134.218 52.0498 133.007 51.8998 131.796 51.5998Z" fill="#0C0C0C"/>
<path d="M149.611 42.2998V43.3498H146.152V52.0498H144.768V43.3498H141.309V42.2998H149.611Z" fill="#0C0C0C"/>
<path d="M150.476 51.8998H148.919L153.589 42.2998H155.146L159.989 51.8998H158.432L157.048 48.8998H153.416L153.762 47.8498H156.529L154.454 43.4998L150.476 51.8998Z" fill="#0C0C0C"/>
<path d="M167.945 42.2998V43.3498H164.486V52.0498H163.102V43.3498H159.643V42.2998H167.945Z" fill="#0C0C0C"/>
<path d="M176.939 42.2998V43.3498H171.231V46.4998H176.766V47.5498H171.231V50.9998H177.285V52.0498H169.848V42.4498H176.939V42.2998Z" fill="#0C0C0C"/>
<path d="M73.5082 56.0996L74.373 57.5996L75.2379 56.0996H75.9297L74.719 58.0496V59.0996H74.0271V58.0496L72.8164 56.0996H73.5082Z" fill="#0C0C0C"/>
<path d="M79.3887 59.0996C79.2157 59.0996 78.8698 59.0996 78.6968 58.9496C78.5239 58.7996 78.3509 58.7996 78.1779 58.6496C78.005 58.4996 78.005 58.3496 77.832 58.1996C77.832 58.0496 77.6591 57.8996 77.6591 57.5996C77.6591 57.4496 77.6591 57.1496 77.832 56.9996C77.832 56.8496 78.005 56.6996 78.1779 56.5496C78.3509 56.3996 78.5239 56.2496 78.6968 56.2496C78.8698 56.0996 79.0427 56.0996 79.3887 56.0996C79.5616 56.0996 79.9076 56.0996 80.0805 56.2496C80.2535 56.3996 80.4265 56.3996 80.5994 56.5496C80.7724 56.6996 80.7724 56.8496 80.9453 56.9996C80.9453 57.1496 81.1183 57.2996 81.1183 57.5996C81.1183 57.7496 81.1183 58.0496 80.9453 58.1996C80.9453 58.3496 80.7724 58.4996 80.5994 58.6496C80.4265 58.7996 80.2535 58.9496 80.0805 58.9496C79.9076 59.0996 79.7346 59.0996 79.3887 59.0996ZM78.5239 57.5996C78.5239 57.7496 78.5239 57.8996 78.5239 57.8996C78.5239 58.0496 78.6968 58.1996 78.6968 58.1996C78.6968 58.3496 78.8698 58.3496 79.0428 58.3496C79.2157 58.3496 79.2157 58.4996 79.3887 58.4996C79.5616 58.4996 79.7346 58.4996 79.7346 58.3496C79.9076 58.3496 79.9076 58.1996 80.0805 58.0496C80.0805 57.8996 80.2535 57.8996 80.2535 57.7496C80.2535 57.5996 80.2535 57.4496 80.2535 57.4496C80.2535 57.2996 80.2535 57.1496 80.2535 57.1496C80.2535 56.9996 80.0805 56.8496 80.0805 56.8496C80.0805 56.6996 79.9076 56.6996 79.7346 56.6996C79.5617 56.6996 79.5616 56.5496 79.3887 56.5496C79.2157 56.5496 79.0428 56.5496 79.0428 56.6996C78.8698 56.6996 78.8698 56.8496 78.6968 56.9996C78.6968 57.1496 78.5239 57.1496 78.5239 57.2996C78.5239 57.2996 78.5239 57.4496 78.5239 57.5996Z" fill="#0C0C0C"/>
<path d="M84.9237 58.65C85.0966 58.65 85.2696 58.65 85.2696 58.5C85.4426 58.5 85.4425 58.35 85.6155 58.35C85.6155 58.2 85.7885 58.2 85.7885 58.05C85.7885 57.9 85.7885 57.75 85.7885 57.75V56.25H86.4803V57.75C86.4803 57.9 86.4803 58.2 86.4803 58.35C86.4803 58.5 86.3074 58.65 86.1344 58.8C85.9614 58.95 85.7885 59.1 85.6155 59.1C85.4425 59.25 85.2696 59.25 84.9237 59.25C84.5778 59.25 84.4048 59.25 84.2318 59.1C84.0589 58.95 83.8859 58.95 83.7129 58.8C83.54 58.65 83.54 58.5 83.54 58.35C83.54 58.2 83.54 58.05 83.54 57.75V56.25H84.2318V57.75C84.2318 57.9 84.2318 58.05 84.2318 58.05C84.2318 58.2 84.2318 58.2 84.4048 58.35C84.4048 58.5 84.5777 58.5 84.5777 58.5C84.7507 58.65 84.9237 58.65 84.9237 58.65Z" fill="#0C0C0C"/>
<path d="M89.0748 59.0996V56.0996H90.6315C90.8044 56.0996 90.9774 56.0996 91.1504 56.2496C91.3233 56.2496 91.3233 56.3996 91.4963 56.5496C91.6692 56.6996 91.6692 56.6996 91.6692 56.8496C91.6692 56.9996 91.6692 57.1496 91.6692 57.1496C91.6692 57.2996 91.6692 57.4496 91.4963 57.7496C91.3233 57.8996 91.1504 58.0496 90.9774 58.0496L91.8422 59.0996H91.1504L90.4585 58.0496H89.7667V59.0996H89.0748ZM89.7667 57.5996H90.6315H90.8044C90.8044 57.5996 90.9774 57.5996 90.9774 57.4496C90.9774 57.4496 90.9774 57.2996 91.1504 57.2996V57.1496V56.9996C91.1504 56.9996 91.1504 56.8496 90.9774 56.8496L90.8044 56.6996H90.6315H89.7667V57.5996Z" fill="#0C0C0C"/>
<path d="M99.7984 56.7H98.7607V59.1H98.0688V56.7H97.0311V56.25H99.9714V56.7H99.7984Z" fill="#0C0C0C"/>
<path d="M101.528 59.0996L102.912 56.0996H103.431L104.814 59.0996H104.122L103.777 58.3496H102.566L102.22 59.0996H101.528ZM103.258 56.6996L102.739 57.8996H103.777L103.258 56.6996Z" fill="#0C0C0C"/>
<path d="M109.484 58.7996C109.138 59.0996 108.965 59.0996 108.619 59.0996C108.446 59.0996 108.273 59.0996 107.927 58.9496C107.754 58.7996 107.581 58.7996 107.408 58.6496C107.235 58.4996 107.235 58.3496 107.062 58.1996C107.062 58.0496 106.89 57.7496 106.89 57.5996C106.89 57.4496 106.89 57.1496 107.062 56.9996C107.062 56.8496 107.235 56.6996 107.408 56.5496C107.581 56.3996 107.754 56.2496 107.927 56.2496C108.1 56.0996 108.273 56.0996 108.619 56.0996C108.965 56.0996 109.138 56.0996 109.484 56.2496C109.657 56.3996 109.83 56.5496 110.003 56.6996L109.484 56.9996C109.484 56.8496 109.311 56.6996 109.138 56.6996C108.965 56.5496 108.792 56.5496 108.619 56.5496C108.446 56.5496 108.273 56.5496 108.273 56.6996C108.1 56.6996 108.1 56.8496 107.927 56.8496C107.927 56.9996 107.754 56.9996 107.754 57.1496C107.754 57.2996 107.754 57.4496 107.754 57.5996C107.754 57.7496 107.754 57.8996 107.754 58.0496C107.754 58.1996 107.927 58.3496 107.927 58.3496C108.1 58.4996 108.1 58.4996 108.273 58.4996C108.446 58.4996 108.446 58.6496 108.619 58.6496C108.965 58.6496 109.138 58.4996 109.484 58.1996V58.0496H108.792V57.5996H110.003V59.0996H109.484V58.7996Z" fill="#0C0C0C"/>
<path d="M112.424 59.0996V56.0996H113.116V58.4996H114.846V58.9496H112.424V59.0996Z" fill="#0C0C0C"/>
<path d="M117.267 59.0996V56.0996H117.959V59.0996H117.267Z" fill="#0C0C0C"/>
<path d="M121.245 57.1496V59.0996H120.554V56.0996H121.072L122.802 58.0496V56.0996H123.494V59.0996H122.975L121.245 57.1496Z" fill="#0C0C0C"/>
<path d="M128.683 58.6496V59.0996H126.261V56.0996H128.683V56.5496H126.953V57.2996H128.337V57.7496H126.953V58.4996H128.683V58.6496Z" fill="#0C0C0C"/>
<path d="M136.293 56.8494C136.293 56.8494 136.12 56.8494 136.293 56.8494C136.12 56.6994 136.12 56.6994 135.947 56.6994C135.947 56.6994 135.774 56.6994 135.601 56.5494C135.428 56.5494 135.428 56.5494 135.255 56.5494C135.082 56.5494 134.909 56.5494 134.909 56.6994C134.736 56.6994 134.736 56.8494 134.736 56.9994V57.1494C134.736 57.1494 134.736 57.2994 134.909 57.2994C134.909 57.2994 135.082 57.2994 135.082 57.4494C135.255 57.4494 135.255 57.4494 135.428 57.5994C135.601 57.5994 135.774 57.7494 135.947 57.7494C136.12 57.7494 136.12 57.8994 136.293 57.8994C136.466 57.8994 136.466 58.0494 136.466 58.1994C136.466 58.3494 136.466 58.3494 136.466 58.4994C136.466 58.6494 136.466 58.7994 136.293 58.9494C136.293 59.0994 136.12 59.0994 135.947 59.2494C135.774 59.2494 135.774 59.3994 135.601 59.3994C135.428 59.3994 135.255 59.3994 135.082 59.3994C134.909 59.3994 134.563 59.3994 134.39 59.2494C134.217 59.2494 133.872 59.0994 133.699 58.9494L134.045 58.4994C134.045 58.4994 134.045 58.4994 134.217 58.6494C134.217 58.6494 134.39 58.7994 134.563 58.7994C134.736 58.7994 134.736 58.9494 134.909 58.9494C135.082 58.9494 135.082 58.9494 135.255 58.9494C135.601 58.9494 135.774 58.7994 135.774 58.6494V58.4994L135.601 58.3494C135.601 58.3494 135.428 58.3494 135.255 58.1994C135.082 58.1994 135.082 58.1994 134.909 58.0494C134.736 58.0494 134.563 57.8994 134.563 57.8994C134.39 57.8994 134.39 57.7494 134.217 57.7494L134.045 57.5994C134.045 57.4494 134.045 57.4494 134.045 57.2994C134.045 57.1494 134.045 56.9994 134.217 56.8494C134.217 56.6994 134.39 56.6994 134.563 56.5494C134.736 56.3994 134.736 56.3994 134.909 56.3994C135.082 56.3994 135.255 56.3994 135.428 56.3994C135.601 56.3994 135.947 56.3994 136.12 56.5494C136.293 56.5494 136.466 56.6994 136.639 56.8494H136.293Z" fill="#0C0C0C"/>
<path d="M139.06 59.0996V56.0996H140.444C140.617 56.0996 140.79 56.0996 140.963 56.2496C141.136 56.2496 141.136 56.3996 141.309 56.5496C141.482 56.6996 141.482 56.6996 141.482 56.8496C141.482 56.9996 141.482 57.1496 141.482 57.1496C141.482 57.2996 141.482 57.4496 141.482 57.4496C141.482 57.5996 141.309 57.5996 141.309 57.7496C141.136 57.8996 141.136 57.8996 140.963 57.8996C140.79 57.8996 140.617 58.0496 140.444 58.0496H139.579V59.0996H139.06ZM139.752 57.5996H140.444C140.617 57.5996 140.617 57.5996 140.79 57.4496C140.79 57.2996 140.963 57.2996 140.963 57.1496V56.9996C140.963 56.9996 140.963 56.8496 140.79 56.8496C140.79 56.8496 140.617 56.8496 140.617 56.6996H140.444H139.752V57.5996Z" fill="#0C0C0C"/>
<path d="M143.384 59.0996L144.768 56.0996H145.287L146.671 59.0996H145.979L145.633 58.3496H144.422L144.076 59.0996H143.384ZM145.114 56.6996L144.595 57.8996H145.633L145.114 56.6996Z" fill="#0C0C0C"/>
<path d="M148.746 57.5996C148.746 57.4496 148.746 57.2996 148.919 56.9996C148.919 56.8496 149.092 56.6996 149.265 56.5496C149.438 56.3996 149.611 56.2496 149.784 56.2496C149.957 56.0996 150.303 56.0996 150.476 56.0996C150.822 56.0996 150.995 56.0996 151.341 56.2496C151.514 56.3996 151.687 56.5496 151.86 56.6996L151.341 56.9996C151.341 56.8496 151.168 56.8496 151.168 56.8496L150.995 56.6996H150.822H150.649C150.476 56.6996 150.303 56.6996 150.303 56.8496C150.13 56.8496 150.13 56.9996 149.957 57.1496C149.957 57.2996 149.784 57.2996 149.784 57.4496C149.784 57.5996 149.784 57.7496 149.784 57.7496C149.784 57.8996 149.784 58.0496 149.784 58.1996C149.784 58.3496 149.957 58.4996 149.957 58.4996C149.957 58.6496 150.13 58.6496 150.303 58.6496C150.476 58.6496 150.476 58.7996 150.649 58.7996H150.822C150.822 58.7996 150.995 58.7996 150.995 58.6496L151.168 58.4996L151.341 58.3496L151.86 58.6496C151.86 58.7996 151.687 58.7996 151.687 58.9496C151.514 59.0996 151.514 59.0996 151.341 59.0996C151.168 59.0996 151.168 59.2496 150.995 59.2496C150.822 59.2496 150.649 59.2496 150.649 59.2496C150.476 59.2496 150.13 59.2496 149.957 59.0996C149.784 58.9496 149.611 58.9496 149.438 58.7996C149.265 58.6496 149.265 58.4996 149.092 58.3496C148.919 57.8996 148.746 57.7496 148.746 57.5996Z" fill="#0C0C0C"/>
<path d="M156.529 58.6496V59.0996H154.108V56.0996H156.529V56.5496H154.8V57.2996H156.184V57.7496H154.8V58.4996H156.529V58.6496Z" fill="#0C0C0C"/>
<path d="M165.005 56.0996V59.0996H164.313V57.8996H162.756V59.0996H162.064V56.0996H162.756V57.2996H164.313V56.0996H165.005Z" fill="#0C0C0C"/>
<path d="M170.021 58.6496V59.0996H167.772V56.0996H170.194V56.5496H168.464V57.2996H169.848V57.7496H168.464V58.4996H170.021V58.6496Z" fill="#0C0C0C"/>
<path d="M172.615 59.0996V56.0996H174.172C174.344 56.0996 174.517 56.0996 174.69 56.2496C174.863 56.2496 174.863 56.3996 175.036 56.5496C175.209 56.6996 175.209 56.6996 175.209 56.8496C175.209 56.9996 175.209 57.1496 175.209 57.1496C175.209 57.2996 175.209 57.4496 175.036 57.7496C174.863 57.8996 174.69 58.0496 174.517 58.0496L175.382 59.0996H174.69L173.999 58.0496H173.307V59.0996H172.615ZM173.307 57.5996H174.172H174.344C174.344 57.5996 174.517 57.5996 174.517 57.4496C174.517 57.4496 174.517 57.2996 174.69 57.2996V57.1496V56.9996C174.69 56.9996 174.69 56.8496 174.517 56.8496L174.344 56.6996H174.172H173.307V57.5996Z" fill="#0C0C0C"/>
<path d="M180.225 58.6496V59.0996H177.804V56.0996H180.225V56.5496H178.495V57.2996H179.879V57.7496H178.495V58.4996H180.225V58.6496Z" fill="#0C0C0C"/>
<path d="M13.3179 58.2V39L52.2342 14.4L62.9578 21.15L73.6814 14.4L52.2342 0.75L0.691772 33.45V58.2H13.3179Z" fill="#0C0C0C"/>
<path d="M55.3478 58.2V39L94.0911 14.4H115.538L94.0911 0.75L42.7216 33.45V58.2H55.3478Z" fill="#0C0C0C"/>
</svg>
