<svg width="16" height="24" viewBox="0 0 16 24" fill="none" xmlns="http://www.w3.org/2000/svg">
<path d="M7.2929 19.7071C7.29309 19.7073 7.29328 19.7074 7.29346 19.7076C7.31657 19.7307 7.3409 19.7526 7.36617 19.7733C7.37775 19.7828 7.38998 19.7911 7.40189 19.8C7.41609 19.8107 7.43001 19.8217 7.44478 19.8316C7.45903 19.8411 7.47379 19.8494 7.48842 19.8581C7.50182 19.8661 7.5149 19.8745 7.52868 19.8818C7.54359 19.8898 7.55892 19.8966 7.57415 19.9037C7.58849 19.9105 7.60265 19.9177 7.61737 19.9238C7.63214 19.9299 7.64723 19.9349 7.66223 19.9402C7.67803 19.9459 7.69359 19.9519 7.70971 19.9568C7.72471 19.9613 7.73995 19.9647 7.75514 19.9685C7.77159 19.9726 7.78785 19.9772 7.80464 19.9806C7.82221 19.984 7.83993 19.9861 7.8576 19.9886C7.87218 19.9907 7.88657 19.9935 7.90134 19.995C7.96696 20.0014 8.0331 20.0014 8.09873 19.995C8.11349 19.9935 8.12789 19.9907 8.14246 19.9886C8.16014 19.9861 8.17785 19.984 8.19543 19.9806C8.21221 19.9772 8.22848 19.9726 8.24493 19.9685C8.26007 19.9647 8.27535 19.9613 8.29035 19.9568C8.30648 19.9519 8.32209 19.9459 8.33784 19.9402C8.35284 19.9348 8.36793 19.9299 8.3827 19.9238C8.39742 19.9177 8.41157 19.9105 8.42592 19.9037C8.44115 19.8966 8.45648 19.8898 8.47139 19.8818C8.48517 19.8745 8.49825 19.866 8.51165 19.8581C8.52628 19.8494 8.54104 19.8411 8.55529 19.8316C8.57006 19.8217 8.58398 19.8107 8.59818 19.8C8.61009 19.7911 8.62232 19.7828 8.6339 19.7733C8.65917 19.7526 8.6835 19.7307 8.7066 19.7076C8.70679 19.7074 8.70698 19.7073 8.70717 19.7071L15.7072 12.7071C16.0977 12.3166 16.0977 11.6834 15.7072 11.2929C15.3166 10.9024 14.6834 10.9024 14.2929 11.2929L9 16.5858V0.999984C9 0.447703 8.55229 0 8.00001 0C7.44773 0 7.00003 0.447703 7.00003 0.999984V16.5858L1.70714 11.2929C1.31662 10.9024 0.683433 10.9024 0.292917 11.2929C-0.0975984 11.6834 -0.0975984 12.3166 0.292917 12.7071L7.2929 19.7071Z" fill="white"/>
<path d="M15 22H1.00003C0.447749 22 4.57764e-05 22.4477 4.57764e-05 23C4.57764e-05 23.5523 0.447749 24 1.00003 24H15C15.5523 24 16 23.5523 16 23C16 22.4477 15.5523 22 15 22Z" fill="white"/>
</svg>
