<svg width="18" height="18" viewBox="0 0 18 18" fill="none" xmlns="http://www.w3.org/2000/svg">
<path d="M11.116 3.00879L1.21212 12.9238C1.16229 12.9738 1.12631 13.0369 1.10918 13.1048L0.0114342 17.5156C-0.0214026 17.6484 0.0175732 17.7896 0.11437 17.8865C0.18761 17.9598 0.287406 18.0004 0.389485 18.0004C0.420752 18.0004 0.452732 17.9965 0.483855 17.9886L4.88998 16.8896C4.95865 16.8725 5.02104 16.8366 5.07086 16.7867L14.9756 6.87245L11.116 3.00879Z" fill="white"/>
<path d="M17.4292 1.65655L16.3267 0.552934C15.5899 -0.184669 14.3057 -0.183954 13.5697 0.552934L12.2193 1.9048L16.0788 5.76832L17.4292 4.41645C17.7973 4.04815 18 3.55794 18 3.03657C18 2.51521 17.7973 2.025 17.4292 1.65655Z" fill="white"/>
</svg>
